<svg width="24" height="31" fill="none" xmlns="http://www.w3.org/2000/svg"><g filter="url(#filter0_d)"><path d="M11.13 29.97a1.497 1.497 0 001.74 0c.456-.322 11.173-8.06 11.13-17.72 0-6.617-5.384-12-12-12S0 5.633 0 12.242c-.043 9.668 10.674 17.406 11.13 17.729zM12 3.25c4.963 0 9 4.036 9 9.007.031 6.657-6.582 12.635-9 14.595-2.416-1.962-9.031-7.94-9-14.602 0-4.964 4.037-9 9-9z" fill="#8EC2F2"/></g><defs><filter id="filter0_d" x="-4" y=".25" width="32" height="37.999" filterUnits="userSpaceOnUse" color-interpolation-filters="sRGB"><feFlood flood-opacity="0" result="BackgroundImageFix"/><feColorMatrix in="SourceAlpha" values="0 0 0 0 0 0 0 0 0 0 0 0 0 0 0 0 0 0 127 0"/><feOffset dy="4"/><feGaussianBlur stdDeviation="2"/><feColorMatrix values="0 0 0 0 0 0 0 0 0 0 0 0 0 0 0 0 0 0 0.25 0"/><feBlend in2="BackgroundImageFix" result="effect1_dropShadow"/><feBlend in="SourceGraphic" in2="effect1_dropShadow" result="shape"/></filter></defs></svg>