<svg width="104" height="24" fill="none" xmlns="http://www.w3.org/2000/svg"><path d="M.992 2.2H4.88V19H.992V2.2zm15.559 3.696c1.6 0 2.888.48 3.864 1.44.992.96 1.488 2.384 1.488 4.272V19h-3.744v-6.816c0-1.024-.224-1.784-.672-2.28-.448-.512-1.096-.768-1.944-.768-.944 0-1.696.296-2.256.888-.56.576-.84 1.44-.84 2.592V19H8.703V6.088h3.576V7.6a4.847 4.847 0 011.848-1.248c.736-.304 1.544-.456 2.424-.456zm22.138-4.704V19h-3.576v-1.488c-.928 1.12-2.272 1.68-4.032 1.68-1.216 0-2.32-.272-3.312-.816a5.865 5.865 0 01-2.304-2.328c-.56-1.008-.84-2.176-.84-3.504 0-1.328.28-2.496.84-3.504a5.865 5.865 0 012.304-2.328c.992-.544 2.096-.816 3.312-.816 1.648 0 2.936.52 3.864 1.56V1.192h3.744zM31.73 16.12c.944 0 1.728-.32 2.352-.96.624-.656.936-1.528.936-2.616s-.312-1.952-.936-2.592c-.624-.656-1.408-.984-2.352-.984-.96 0-1.752.328-2.376.984-.624.64-.936 1.504-.936 2.592s.312 1.96.936 2.616c.624.64 1.416.96 2.376.96zM42.255 6.088h3.744V19h-3.744V6.088zm1.872-1.8c-.688 0-1.248-.2-1.68-.6a1.946 1.946 0 01-.648-1.488c0-.592.216-1.088.648-1.488.432-.4.992-.6 1.68-.6s1.248.192 1.68.576c.432.384.648.864.648 1.44 0 .624-.216 1.144-.648 1.56-.432.4-.992.6-1.68.6zm11.686 14.904c-1.376 0-2.616-.28-3.72-.84-1.088-.576-1.944-1.368-2.568-2.376-.608-1.008-.912-2.152-.912-3.432 0-1.28.304-2.424.912-3.432a6.4 6.4 0 012.568-2.352c1.104-.576 2.344-.864 3.72-.864 1.36 0 2.544.288 3.552.864a4.98 4.98 0 012.232 2.424l-2.904 1.56c-.672-1.184-1.64-1.776-2.904-1.776-.976 0-1.784.32-2.424.96-.64.64-.96 1.512-.96 2.616s.32 1.976.96 2.616c.64.64 1.448.96 2.424.96 1.28 0 2.248-.592 2.904-1.776l2.904 1.584c-.464 1.024-1.208 1.824-2.232 2.4-1.008.576-2.192.864-3.552.864zm14.02 0c-1.36 0-2.584-.28-3.672-.84a6.439 6.439 0 01-2.52-2.376c-.608-1.008-.912-2.152-.912-3.432 0-1.28.304-2.424.912-3.432a6.27 6.27 0 012.52-2.352c1.088-.576 2.312-.864 3.672-.864 1.36 0 2.576.288 3.648.864A6.27 6.27 0 0176 9.112c.608 1.008.912 2.152.912 3.432 0 1.28-.304 2.424-.912 3.432a6.439 6.439 0 01-2.52 2.376c-1.072.56-2.288.84-3.648.84zm0-3.072c.96 0 1.744-.32 2.352-.96.624-.656.936-1.528.936-2.616s-.312-1.952-.936-2.592c-.608-.656-1.392-.984-2.352-.984s-1.752.328-2.376.984c-.624.64-.936 1.504-.936 2.592s.312 1.96.936 2.616c.624.64 1.416.96 2.376.96zM83.09 7.792a4.186 4.186 0 011.8-1.416c.768-.32 1.648-.48 2.64-.48v3.456a13.512 13.512 0 00-.84-.048c-1.072 0-1.912.304-2.52.912-.608.592-.912 1.488-.912 2.688V19h-3.743V6.088h3.575v1.704zm14.4-1.896c1.2 0 2.288.28 3.264.84a5.821 5.821 0 012.328 2.328c.56.992.84 2.152.84 3.48 0 1.328-.28 2.496-.84 3.504a6.028 6.028 0 01-2.328 2.328c-.976.544-2.064.816-3.264.816-1.648 0-2.944-.52-3.888-1.56v6.024h-3.744V6.088h3.576v1.488c.928-1.12 2.28-1.68 4.056-1.68zm-.648 10.224c.96 0 1.744-.32 2.352-.96.624-.656.936-1.528.936-2.616s-.312-1.952-.936-2.592c-.608-.656-1.392-.984-2.352-.984s-1.752.328-2.376.984c-.608.64-.912 1.504-.912 2.592s.304 1.96.912 2.616c.624.64 1.416.96 2.376.96z" fill="#252B42"/></svg>